<svg width="202" height="12" viewBox="0 0 202 12" fill="none" xmlns="http://www.w3.org/2000/svg">
<path d="M3.84 11.376H2.272L0.720001 0.975992H1.84L3.152 9.75999L4.864 0.975992H6.064L7.776 9.75999L9.088 0.975992H10.208L8.656 11.376H7.088L5.456 3.07199L3.84 11.376Z" fill="#E0E0E0"/>
<path d="M19.1619 11.376H14.4419V0.975992H19.0019V1.93599H15.5619V5.61599H18.3619V6.57599H15.5619V10.416H19.1619V11.376Z" fill="#E0E0E0"/>
<path d="M23.4869 0.975992H25.9029C26.7349 0.975992 27.3642 1.17333 27.7909 1.56799C28.2282 1.96266 28.4469 2.51199 28.4469 3.21599V4.17599C28.4469 5.08266 28.0682 5.66399 27.3109 5.91999C28.1749 6.15466 28.6069 6.74666 28.6069 7.69599V9.13599C28.6069 9.85066 28.3935 10.4053 27.9669 10.8C27.5402 11.184 26.9055 11.376 26.0629 11.376H23.4869V0.975992ZM27.4869 9.13599V7.69599C27.4869 7.35466 27.3589 7.04533 27.1029 6.76799C26.8469 6.47999 26.5002 6.33599 26.0629 6.33599H24.6069V10.416H26.0629C26.5109 10.416 26.8575 10.2933 27.1029 10.048C27.3589 9.79199 27.4869 9.48799 27.4869 9.13599ZM27.3269 4.17599V3.21599C27.3269 2.87466 27.1989 2.57599 26.9429 2.31999C26.6975 2.06399 26.3509 1.93599 25.9029 1.93599H24.6069V5.53599H25.9029C26.3509 5.53599 26.6975 5.39733 26.9429 5.11999C27.1989 4.84266 27.3269 4.52799 27.3269 4.17599Z" fill="#E0E0E0"/>
<path d="M38.6125 9.37599V7.93599C38.6125 6.79466 38.9965 6.07999 39.7645 5.79199C39.2098 4.92799 38.9325 4.25599 38.9325 3.77599V2.97599C38.9325 2.26133 39.1512 1.71199 39.5885 1.32799C40.0365 0.933326 40.7085 0.735992 41.6045 0.735992C43.3218 0.735992 44.1805 1.48266 44.1805 2.97599V4.33599H43.0605V2.91199C43.0605 2.52799 42.9325 2.22933 42.6765 2.01599C42.4312 1.80266 42.0578 1.69599 41.5565 1.69599C41.0552 1.69599 40.6765 1.80266 40.4205 2.01599C40.1752 2.22933 40.0525 2.52799 40.0525 2.91199V3.77599C40.0525 4.15999 40.3458 4.77333 40.9325 5.61599H45.3165V6.57599H44.0205V9.37599C44.0205 10.8693 43.1192 11.616 41.3165 11.616C39.5138 11.616 38.6125 10.8693 38.6125 9.37599ZM42.9005 9.43999V6.57599H40.8365C40.1005 6.57599 39.7325 7.02933 39.7325 7.93599V9.43999C39.7325 9.82399 39.8658 10.1227 40.1325 10.336C40.3992 10.5493 40.7938 10.656 41.3165 10.656C41.8392 10.656 42.2338 10.5493 42.5005 10.336C42.7672 10.1227 42.9005 9.82399 42.9005 9.43999Z" fill="#E0E0E0"/>
<path d="M59.4963 11.376H54.7762V0.975992H59.3363V1.93599H55.8963V5.61599H58.6963V6.57599H55.8963V10.416H59.4963V11.376Z" fill="#E0E0E0"/>
<path d="M64.9412 11.376H63.8212V0.975992H64.9412L68.4132 8.97599V0.975992H69.5332V11.376H68.4132L64.9412 3.37599V11.376Z" fill="#E0E0E0"/>
<path d="M78.8075 0.975992V1.93599H76.7275V11.376H75.6075V1.93599H73.5275V0.975992H78.8075Z" fill="#E0E0E0"/>
<path d="M83.9219 11.376H82.8019V0.975992H85.2179C86.0499 0.975992 86.6792 1.17333 87.1059 1.56799C87.5432 1.96266 87.7619 2.51199 87.7619 3.21599V5.45599C87.7619 6.54399 87.2925 7.23733 86.3539 7.53599L88.3219 11.376H87.0899L85.2179 7.69599H83.9219V11.376ZM86.6419 5.45599V3.21599C86.6419 2.81066 86.5192 2.49599 86.2739 2.27199C86.0285 2.04799 85.6765 1.93599 85.2179 1.93599H83.9219V6.73599H85.2179C86.1672 6.73599 86.6419 6.30933 86.6419 5.45599Z" fill="#E0E0E0"/>
<path d="M97.2075 11.376H92.4875V0.975992H97.0475V1.93599H93.6075V5.61599H96.4075V6.57599H93.6075V10.416H97.2075V11.376Z" fill="#E0E0E0"/>
<path d="M102.493 11.376H101.373V0.975992H103.789C104.621 0.975992 105.25 1.17333 105.677 1.56799C106.114 1.96266 106.333 2.51199 106.333 3.21599V5.93599C106.333 6.65066 106.119 7.20533 105.693 7.59999C105.266 7.98399 104.631 8.17599 103.789 8.17599H102.493V11.376ZM105.213 5.93599V3.21599C105.213 2.81066 105.09 2.49599 104.845 2.27199C104.599 2.04799 104.247 1.93599 103.789 1.93599H102.493V7.21599H103.789C104.738 7.21599 105.213 6.78933 105.213 5.93599Z" fill="#E0E0E0"/>
<path d="M111.932 11.376H110.812V0.975992H113.228C114.06 0.975992 114.689 1.17333 115.116 1.56799C115.553 1.96266 115.772 2.51199 115.772 3.21599V5.45599C115.772 6.54399 115.303 7.23733 114.364 7.53599L116.332 11.376H115.1L113.228 7.69599H111.932V11.376ZM114.652 5.45599V3.21599C114.652 2.81066 114.529 2.49599 114.284 2.27199C114.039 2.04799 113.687 1.93599 113.228 1.93599H111.932V6.73599H113.228C114.177 6.73599 114.652 6.30933 114.652 5.45599Z" fill="#E0E0E0"/>
<path d="M125.217 11.376H120.497V0.975992H125.058V1.93599H121.618V5.61599H124.417V6.57599H121.618V10.416H125.217V11.376Z" fill="#E0E0E0"/>
<path d="M130.662 11.376H129.542V0.975992H130.662L134.134 8.97599V0.975992H135.255V11.376H134.134L130.662 3.37599V11.376Z" fill="#E0E0E0"/>
<path d="M145.089 11.376H140.369V0.975992H144.929V1.93599H141.489V5.61599H144.289V6.57599H141.489V10.416H145.089V11.376Z" fill="#E0E0E0"/>
<path d="M153.574 9.37599V0.975992H154.694V9.37599C154.694 10.0907 154.464 10.6453 154.006 11.04C153.558 11.424 152.88 11.616 151.974 11.616C151.078 11.616 150.4 11.424 149.942 11.04C149.483 10.6453 149.254 10.0907 149.254 9.37599V0.975992H150.374V9.37599C150.374 10.2293 150.907 10.656 151.974 10.656C153.04 10.656 153.574 10.2293 153.574 9.37599Z" fill="#E0E0E0"/>
<path d="M160.766 11.376H159.646V0.975992H162.062C162.894 0.975992 163.524 1.17333 163.95 1.56799C164.388 1.96266 164.606 2.51199 164.606 3.21599V5.45599C164.606 6.54399 164.137 7.23733 163.198 7.53599L165.166 11.376H163.934L162.062 7.69599H160.766V11.376ZM163.486 5.45599V3.21599C163.486 2.81066 163.364 2.49599 163.118 2.27199C162.873 2.04799 162.521 1.93599 162.062 1.93599H160.766V6.73599H162.062C163.012 6.73599 163.486 6.30933 163.486 5.45599Z" fill="#E0E0E0"/>
<path d="M174.42 9.37599C174.42 10.8693 173.519 11.616 171.716 11.616C169.913 11.616 169.012 10.8693 169.012 9.37599V8.01599H170.132V9.43999C170.132 9.82399 170.265 10.1227 170.532 10.336C170.799 10.5493 171.193 10.656 171.716 10.656C172.239 10.656 172.633 10.5493 172.9 10.336C173.167 10.1227 173.3 9.83466 173.3 9.47199C173.3 9.09866 173.257 8.80533 173.172 8.59199C173.097 8.36799 172.937 8.13333 172.692 7.88799L169.876 5.13599C169.545 4.80533 169.316 4.48533 169.188 4.17599C169.071 3.85599 169.012 3.45599 169.012 2.97599C169.012 2.26133 169.231 1.71199 169.668 1.32799C170.116 0.933326 170.788 0.735992 171.684 0.735992C173.401 0.735992 174.26 1.48266 174.26 2.97599V4.33599H173.14V2.91199C173.14 2.52799 173.012 2.22933 172.756 2.01599C172.511 1.80266 172.137 1.69599 171.636 1.69599C171.135 1.69599 170.756 1.80266 170.5 2.01599C170.255 2.22933 170.132 2.52266 170.132 2.89599C170.132 3.26933 170.169 3.56266 170.244 3.77599C170.319 3.98933 170.484 4.21333 170.74 4.44799L173.604 7.19999C173.913 7.54133 174.127 7.87199 174.244 8.19199C174.361 8.50133 174.42 8.89599 174.42 9.37599Z" fill="#E0E0E0"/>
<path d="M180.341 11.376H179.221V0.975992H180.341V5.61599H183.493V0.975992H184.613V11.376H183.493V6.57599H180.341V11.376Z" fill="#E0E0E0"/>
<path d="M191.974 10.416V11.376H189.254V10.416H190.054V1.93599H189.254V0.975992H191.974V1.93599H191.174V10.416H191.974Z" fill="#E0E0E0"/>
<path d="M197.567 11.376H196.447V0.975992H198.863C199.695 0.975992 200.325 1.17333 200.751 1.56799C201.189 1.96266 201.407 2.51199 201.407 3.21599V5.93599C201.407 6.65066 201.194 7.20533 200.767 7.59999C200.341 7.98399 199.706 8.17599 198.863 8.17599H197.567V11.376ZM200.287 5.93599V3.21599C200.287 2.81066 200.165 2.49599 199.919 2.27199C199.674 2.04799 199.322 1.93599 198.863 1.93599H197.567V7.21599H198.863C199.813 7.21599 200.287 6.78933 200.287 5.93599Z" fill="#E0E0E0"/>
</svg>
