<svg width="299" height="22" viewBox="0 0 299 22" fill="none" xmlns="http://www.w3.org/2000/svg">
<path d="M0.119995 21.376V20.8H1.624C1.92266 20.8 2.072 20.6507 2.072 20.352V2.176C2.072 1.92 1.92266 1.792 1.624 1.792H0.119995V1.216H10.264C11.9493 1.216 13.1333 1.12 13.816 0.927999C13.624 1.80267 13.528 3.01867 13.528 4.576V6.08H12.792L12.312 2.816C12.2693 2.34667 11.9707 2.112 11.416 2.112H4.696V10.848H11.128C11.384 10.848 11.5333 10.6987 11.576 10.4L11.736 8.416H12.312V14.176H11.736L11.576 12.192C11.5333 11.8933 11.384 11.744 11.128 11.744H4.696V20.48H11.864C12.4187 20.48 12.7173 20.2453 12.76 19.776L13.24 16.032H13.976V17.536C13.976 19.4133 14.072 20.7893 14.264 21.664C13.5813 21.472 12.3973 21.376 10.712 21.376H0.119995Z" fill="white"/>
<path d="M35.7232 21.376V20.8H37.2272C37.5259 20.8 37.6752 20.672 37.6752 20.416V4.064L30.9872 21.376H29.8992L23.2112 4.544V20.352C23.2112 20.6507 23.3606 20.8 23.6592 20.8H25.1632V21.376H20.1712V20.8H21.6752C21.9739 20.8 22.1232 20.6507 22.1232 20.352V2.176C22.1232 1.92 21.9739 1.792 21.6752 1.792H20.1712V1.216H24.7472L31.2752 17.76L37.6752 1.216H42.2512V1.792H40.7472C40.4486 1.792 40.2992 1.94133 40.2992 2.24V20.416C40.2992 20.672 40.4486 20.8 40.7472 20.8H42.2512V21.376H35.7232Z" fill="white"/>
<path d="M49.9557 20.352V2.176C49.9557 1.92 49.8064 1.792 49.5077 1.792H48.0037V1.216H54.5317V1.792H53.0277C52.7291 1.792 52.5797 1.92 52.5797 2.176V20.352C52.5797 20.6507 52.7291 20.8 53.0277 20.8H54.5317V21.376H48.0037V20.8H49.5077C49.8064 20.8 49.9557 20.6507 49.9557 20.352Z" fill="white"/>
<path d="M60.305 21.376V20.8H61.809C62.1077 20.8 62.257 20.6507 62.257 20.352V2.176C62.257 1.92 62.1077 1.792 61.809 1.792H60.305V1.216H66.833V1.792H65.329C65.0303 1.792 64.881 1.92 64.881 2.176V20.48H71.249C71.8037 20.48 72.1023 20.2453 72.145 19.776L72.625 16.032H73.361V17.536C73.361 19.4133 73.457 20.7893 73.649 21.664C72.9663 21.472 71.7823 21.376 70.097 21.376H60.305Z" fill="white"/>
<path d="M98.9977 1.76C97.0564 1.76 95.4884 2.61333 94.2937 4.32C93.1204 6.02667 92.5337 8.36267 92.5337 11.328C92.5337 14.2933 93.1311 16.6187 94.3257 18.304C95.5204 19.9893 97.0137 20.832 98.8057 20.832C100.619 20.832 101.878 20.3733 102.582 19.456C103.307 18.5173 103.67 17.152 103.67 15.36V14.08C103.67 13.824 103.52 13.696 103.222 13.696H101.078V13.12H107.606V13.696H106.742C106.443 13.696 106.294 13.824 106.294 14.08V15.232C106.294 17.1307 105.611 18.6987 104.246 19.936C102.88 21.152 101.131 21.76 98.9977 21.76C96.3097 21.76 94.1017 20.832 92.3737 18.976C90.6671 17.12 89.8137 14.5707 89.8137 11.328C89.8137 8.064 90.6564 5.504 92.3417 3.648C94.0484 1.77067 96.2671 0.832001 98.9977 0.832001C100.384 0.832001 101.771 1.184 103.158 1.888C103.606 2.12267 103.926 2.24 104.118 2.24C104.438 2.24 104.608 2.016 104.63 1.568L104.662 1.024H105.27V6.56H104.694C104.502 4.91733 103.883 3.712 102.838 2.944C101.814 2.15467 100.534 1.76 98.9977 1.76Z" fill="white"/>
<path d="M129.552 21.376H122.992V20.8H125.072L122.832 14.624H115.792L113.552 20.8H115.632V21.376H110.8V20.8H111.984C112.283 20.8 112.485 20.6507 112.592 20.352L119.632 1.216H120.72L127.76 20.352C127.867 20.6507 128.069 20.8 128.368 20.8H129.552V21.376ZM119.344 4.992L116.144 13.728H122.512L119.344 4.992Z" fill="white"/>
<path d="M133.885 1.792V1.216H142.013C144.722 1.216 146.93 2.112 148.637 3.904C150.344 5.696 151.197 8.16 151.197 11.296C151.197 14.432 150.344 16.896 148.637 18.688C146.93 20.48 144.722 21.376 142.013 21.376H133.885V20.8H135.389C135.688 20.8 135.837 20.672 135.837 20.416V2.176C135.837 1.92 135.688 1.792 135.389 1.792H133.885ZM142.013 2.112H138.461V20.48H142.013C143.848 20.48 145.384 19.6587 146.621 18.016C147.858 16.3733 148.477 14.1333 148.477 11.296C148.477 8.45867 147.858 6.21867 146.621 4.576C145.384 2.93333 143.848 2.112 142.013 2.112Z" fill="white"/>
<path d="M156.808 21.376V20.48L168.264 2.112H159.88C159.325 2.112 159.026 2.34667 158.984 2.816L158.504 6.56H157.768V5.056C157.768 3.17867 157.672 1.80267 157.48 0.927999C158.162 1.12 159.346 1.216 161.032 1.216H171.368V2.112L159.88 20.48H168.967C169.522 20.48 169.821 20.2453 169.864 19.776L170.344 16.032H171.079V17.536C171.079 19.4133 171.176 20.7893 171.368 21.664C170.685 21.472 169.501 21.376 167.816 21.376H156.808Z" fill="white"/>
<path d="M190.876 20.352V11.744H181.532V20.352C181.532 20.6507 181.682 20.8 181.98 20.8H183.484V21.376H176.956V20.8H178.46C178.759 20.8 178.908 20.6507 178.908 20.352V2.176C178.908 1.92 178.759 1.792 178.46 1.792H176.956V1.216H183.484V1.792H181.98C181.682 1.792 181.532 1.94133 181.532 2.24V10.848H190.876V2.24C190.876 1.94133 190.727 1.792 190.428 1.792H188.924V1.216H195.452V1.792H193.948C193.65 1.792 193.5 1.92 193.5 2.176V20.352C193.5 20.6507 193.65 20.8 193.948 20.8H195.452V21.376H188.924V20.8H190.428C190.727 20.8 190.876 20.6507 190.876 20.352Z" fill="white"/>
<path d="M203.178 20.352V2.176C203.178 1.92 203.029 1.792 202.73 1.792H201.226V1.216H207.754V1.792H206.25C205.952 1.792 205.802 1.92 205.802 2.176V20.352C205.802 20.6507 205.952 20.8 206.25 20.8H207.754V21.376H201.226V20.8H202.73C203.029 20.8 203.178 20.6507 203.178 20.352Z" fill="white"/>
<path d="M224.76 1.216H229.111V1.792H227.928C227.629 1.792 227.426 1.94133 227.32 2.24L222.424 14.048V20.352C222.424 20.6507 222.573 20.8 222.872 20.8H225.176V21.376H217.048V20.8H219.352C219.65 20.8 219.799 20.6507 219.799 20.352V14.016L214.359 2.24C214.21 1.94133 214.007 1.792 213.751 1.792H212.568V1.216H218.68V1.792H217.079L221.975 12.416L226.359 1.792H224.76V1.216Z" fill="white"/>
<path d="M233.923 21.376V20.8H235.426C235.725 20.8 235.875 20.6507 235.875 20.352V2.176C235.875 1.92 235.725 1.792 235.426 1.792H233.923V1.216H244.067C245.752 1.216 246.936 1.12 247.618 0.927999C247.426 1.80267 247.331 3.01867 247.331 4.576V6.08H246.595L246.115 2.816C246.072 2.34667 245.773 2.112 245.219 2.112H238.499V10.848H244.931C245.187 10.848 245.336 10.6987 245.379 10.4L245.539 8.416H246.115V14.176H245.539L245.379 12.192C245.336 11.8933 245.187 11.744 244.931 11.744H238.499V20.48H245.667C246.221 20.48 246.52 20.2453 246.562 19.776L247.043 16.032H247.779V17.536C247.779 19.4133 247.875 20.7893 248.067 21.664C247.384 21.472 246.2 21.376 244.515 21.376H233.923Z" fill="white"/>
<path d="M253.014 1.216H259.094V1.792H257.494L262.71 17.408L268.054 1.792H266.454V1.216H270.806V1.792H269.622C269.323 1.792 269.12 1.94133 269.014 2.24L262.454 21.376H261.366L254.806 2.24C254.699 1.94133 254.496 1.792 254.198 1.792H253.014V1.216Z" fill="white"/>
<path d="M275.459 6.752C276.461 5.856 276.963 4.94933 276.963 4.032C276.963 3.09333 276.579 2.35733 275.811 1.824C275.832 1.312 276.003 0.885333 276.323 0.544001C276.664 0.181334 277.069 0 277.539 0C278.712 0 279.299 0.64 279.299 1.92C279.299 2.79467 278.968 3.75467 278.307 4.8C277.667 5.824 276.835 6.624 275.811 7.2L275.459 6.752Z" fill="white"/>
<path d="M292.048 21.76C290.641 21.76 289.232 21.376 287.824 20.608C287.355 20.3733 287.035 20.256 286.865 20.256C286.544 20.256 286.374 20.48 286.352 20.928L286.32 21.376H285.712V16.032H286.288C286.48 17.6747 287.089 18.8907 288.112 19.68C289.158 20.448 290.384 20.832 291.792 20.832C293.222 20.832 294.299 20.448 295.024 19.68C295.771 18.912 296.145 18.0053 296.145 16.96C296.145 15.296 295.185 14.0373 293.264 13.184L289.456 11.488C288.304 10.976 287.44 10.2827 286.865 9.408C286.289 8.512 286 7.552 286 6.528C286 4.97067 286.523 3.63733 287.568 2.528C288.614 1.39733 290.118 0.832001 292.08 0.832001C293.232 0.832001 294.416 1.216 295.632 1.984C296.038 2.21867 296.315 2.336 296.464 2.336C296.742 2.336 296.891 2.112 296.912 1.664L296.944 1.024H297.552V6.56H296.977C296.806 4.91733 296.272 3.712 295.376 2.944C294.502 2.15467 293.424 1.76 292.145 1.76C290.886 1.76 289.905 2.112 289.201 2.816C288.518 3.49867 288.176 4.288 288.176 5.184C288.176 6.05867 288.411 6.848 288.88 7.552C289.371 8.256 290.086 8.81067 291.024 9.216L294.865 10.912C296.145 11.488 297.104 12.2453 297.744 13.184C298.406 14.1013 298.736 15.0933 298.736 16.16C298.736 17.6747 298.128 18.9867 296.912 20.096C295.696 21.2053 294.075 21.76 292.048 21.76Z" fill="white"/>
</svg>
